<svg xmlns="http://www.w3.org/2000/svg" width="512" height="512" viewBox="0 0 512 512">
  <defs>
    <linearGradient id="gradient" x1="0%" y1="0%" x2="100%" y2="0%">
      <stop offset="0%" stop-color="hsl(335, 78%, 60%)" />
      <stop offset="100%" stop-color="hsl(270, 67%, 53%)" />
    </linearGradient>
  </defs>
  <rect width="512" height="512" rx="64" fill="url(#gradient)" />
  <path d="M393.2 256c0 75.7-61.5 137.2-137.2 137.2S118.8 331.7 118.8 256 180.3 118.8 256 118.8 393.2 180.3 393.2 256zM256 80c-97.2 0-176 78.8-176 176s78.8 176 176 176 176-78.8 176-176S353.2 80 256 80zm89.6 176c0 29.9-24.2 54.1-54.1 54.1h-72.3V237c-10.6 0-19.2-8.6-19.2-19.2s8.6-19.2 19.2-19.2h72.3c29.9 0 54.1 24.2 54.1 54.1z"
    fill="white" />
</svg> 